<svg xmlns="http://www.w3.org/2000/svg" width="31.386" height="16.597" viewBox="0 0 31.386 16.597">
  <g id="flight_3_" data-name="flight (3)" transform="translate(-27.742 -133.791)">
    <path id="Path_348" data-name="Path 348" d="M36.135,145.26a1.823,1.823,0,0,0,.633-.112l6.213-2.393.475-1.256a.407.407,0,0,1,.231-.235l6.775-2.675a.407.407,0,0,1,.5.583l-.267.461,7.645-3.027a1.241,1.241,0,0,0-.032-2.319,8.271,8.271,0,0,0-6.572.4l-15.319,7.542a.407.407,0,0,1-.412-.03L32.385,139.7a3.911,3.911,0,0,0-3.671-.42l-.972.385,5.785,4.7A3.961,3.961,0,0,0,36.135,145.26Z" fill="#fff"/>
    <path id="Path_349" data-name="Path 349" d="M225.083,232.572l6.144-10.611-5.519,2.179-3.188,8.432Z" transform="translate(-181.553 -82.184)" fill="#fff"/>
    <path id="Path_350" data-name="Path 350" d="M188.491,139.848l-6.726-2.471-1.376.837,4.946,3.188Z" transform="translate(-142.283 -3.343)" fill="#fff"/>
  </g>
</svg>
