<svg xmlns="http://www.w3.org/2000/svg" width="36.854" height="32.759" viewBox="0 0 36.854 32.759">
  <path id="Icon_metro-users" data-name="Icon metro-users" d="M27.141,29.8V28.107A9.145,9.145,0,0,0,31.235,20.5c0-5.088,0-9.213-6.142-9.213S18.951,15.41,18.951,20.5a9.145,9.145,0,0,0,4.095,7.609V29.8c-6.945.568-12.285,3.98-12.285,8.106H39.425c0-4.126-5.339-7.538-12.285-8.106Zm-14.1.791a19.452,19.452,0,0,1,6.391-2.573,11.55,11.55,0,0,1-1.3-1.888A11.724,11.724,0,0,1,16.647,20.5c0-2.753,0-5.352.979-7.478A6.666,6.666,0,0,1,22.72,9.2c-.541-2.447-1.982-4.055-5.817-4.055-6.142,0-6.142,4.125-6.142,9.213a9.145,9.145,0,0,0,4.095,7.609v1.688c-6.945.568-12.285,3.98-12.285,8.106H11.5a13.114,13.114,0,0,1,1.542-1.173Z" transform="translate(-2.571 -5.143)" fill="rgba(179,0,0,0.4)"/>
</svg>
