<svg xmlns="http://www.w3.org/2000/svg" width="36.376" height="41.573" viewBox="0 0 36.376 41.573">
  <path id="Icon_awesome-calendar-check" data-name="Icon awesome-calendar-check" d="M35.4,12.992H.974A.974.974,0,0,1,0,12.017V9.094A3.9,3.9,0,0,1,3.9,5.2h3.9V.974A.974.974,0,0,1,8.769,0h3.248a.974.974,0,0,1,.974.974V5.2H23.385V.974A.974.974,0,0,1,24.359,0h3.248a.974.974,0,0,1,.974.974V5.2h3.9a3.9,3.9,0,0,1,3.9,3.9v2.923A.974.974,0,0,1,35.4,12.992ZM.974,15.59H35.4a.974.974,0,0,1,.974.974V37.676a3.9,3.9,0,0,1-3.9,3.9H3.9a3.9,3.9,0,0,1-3.9-3.9V16.564A.974.974,0,0,1,.974,15.59Zm27.063,7.791L25.75,21.075a.974.974,0,0,0-1.378-.006l-8.61,8.541-3.733-3.764a.974.974,0,0,0-1.378-.006L8.345,28.128a.974.974,0,0,0-.006,1.378l6.707,6.761a.974.974,0,0,0,1.378.006L28.032,24.758a.974.974,0,0,0,.006-1.378Z" fill="rgba(179,0,0,0.4)"/>
</svg>
