<svg xmlns="http://www.w3.org/2000/svg" width="29" height="22.004" viewBox="0 0 29 22.004">
  <path id="Icon_awesome-plane-arrival" data-name="Icon awesome-plane-arrival" d="M27.3,18.375H.7a.679.679,0,0,0-.7.656v1.313A.679.679,0,0,0,.7,21H27.3a.679.679,0,0,0,.7-.656V19.031A.679.679,0,0,0,27.3,18.375ZM1.96,8.435l3.882,3.281a2.8,2.8,0,0,0,1.114.571L19.54,15.5a7.12,7.12,0,0,0,3.544.056c1.3-.339,1.9-.87,2.067-1.465s-.076-1.342-1.022-2.254a6.892,6.892,0,0,0-3.1-1.641L16.763,9.108,12.372,1.239a.7.7,0,0,0-.51-.488L9.015.024A.712.712,0,0,0,8.109.7l2.1,6.735L5.734,6.291,4.527,3.507A.709.709,0,0,0,4.045,3.1L2.307,2.656a.714.714,0,0,0-.907.651l.01,4.175A1.392,1.392,0,0,0,1.96,8.435Z" transform="translate(0.5 0.504)" fill="none" stroke="#fff" stroke-width="1"/>
</svg>
