<svg xmlns="http://www.w3.org/2000/svg" width="22.053" height="22.14" viewBox="0 0 22.053 22.14">
  <g id="kaaba" transform="translate(-0.499 -0.001)">
    <path id="Path_356" data-name="Path 356" d="M1.8,119.647l9.572,2.393a.648.648,0,0,0,.315,0l9.572-2.393,1.3-.324v-1.69l-.177.044L12,120.272a1.945,1.945,0,0,1-.944,0L.5,117.633v1.69Zm0,0" transform="translate(0 -112.545)" fill="#fff"/>
    <path id="Path_357" data-name="Path 357" d="M11.527,188.546.5,185.789v10.863a.648.648,0,0,0,.491.629l2.536.634v-6.128a.649.649,0,0,1,.806-.629l4.324,1.081a.648.648,0,0,1,.491.629v6.452l2.221.555a.646.646,0,0,0,.315,0l10.378-2.594a.648.648,0,0,0,.491-.629V185.789Zm0,0" transform="translate(-0.001 -177.754)" fill="#fff"/>
    <path id="Path_358" data-name="Path 358" d="M11.527,6.487a.643.643,0,0,1-.157-.019L.991,3.873a.649.649,0,0,1,0-1.258L11.369.02a.648.648,0,0,1,.315,0L22.062,2.615a.649.649,0,0,1,0,1.258L11.684,6.468A.643.643,0,0,1,11.527,6.487Zm0,0" transform="translate(-0.001 0)" fill="#fff"/>
    <path id="Path_359" data-name="Path 359" d="M100.5,349.332l3.027.757v-5.621l-3.027-.757Zm0,0" transform="translate(-95.677 -328.847)" fill="#fff"/>
  </g>
</svg>
